<?xml version="1.0" encoding="UTF-8" standalone="no"?>
<svg xmlns="http://www.w3.org/2000/svg" viewBox="0 0 1000 1000" width="1000" height="1000">
  <!-- White background -->
  <circle cx="500" cy="500" r="490" fill="white" />

  <!-- Thin blue circle border -->
  <circle cx="500" cy="500" r="490" fill="none" stroke="#0a1950" stroke-width="2" />

  <!-- FTFC letters in gold -->
  <g fill="#ffd700">
    <!-- F -->
    <path d="M195,200 L195,800 L275,800 L275,550 L375,550 L375,470 L275,470 L275,280 L395,280 L395,200 Z" />

    <!-- T -->
    <path d="M425,200 L425,280 L475,280 L475,800 L555,800 L555,280 L605,280 L605,200 Z" />

    <!-- F -->
    <path d="M635,200 L635,800 L715,800 L715,550 L815,550 L815,470 L715,470 L715,280 L835,280 L835,200 Z" />

    <!-- C -->
    <path d="M865,200 C815,200 775,220 745,260 C715,300 700,360 700,440 L700,560 C700,640 715,700 745,740 C775,780 815,800 865,800 C895,800 920,790 940,770 C960,750 970,720 970,680 L970,640 L890,640 L890,660 C890,690 880,705 865,705 C850,705 840,695 835,675 C830,655 825,625 825,585 L825,415 C825,375 830,345 835,325 C840,305 850,295 865,295 C880,295 890,310 890,340 L890,360 L970,360 L970,320 C970,280 960,250 940,230 C920,210 895,200 865,200 Z" />
  </g>
</svg>
